<?xml version="1.0" standalone="no"?>
<!DOCTYPE svg PUBLIC "-//W3C//DTD SVG 20010904//EN"
 "http://www.w3.org/TR/2001/REC-SVG-20010904/DTD/svg10.dtd">
<svg version="1.0" xmlns="http://www.w3.org/2000/svg"
 width="920.000000pt" height="515.000000pt" viewBox="0 0 920.000000 515.000000"
 preserveAspectRatio="xMidYMid meet">

<g transform="translate(0.000000,515.000000) scale(0.100000,-0.100000)"
fill="#000000" stroke="none">
<path d="M4560 4410 l0 -90 -90 0 -90 0 0 -595 0 -595 -95 0 -95 0 0 -90 0
-90 -135 0 -135 0 0 -90 0 -90 -138 0 -138 0 0 -87 1 -88 -90 -3 -90 -3 1 -83
c1 -46 -2 -89 -6 -95 -4 -8 -63 -11 -190 -9 l-183 3 2 93 2 92 -95 0 -96 0 0
90 0 90 -90 0 -90 0 0 180 0 180 -80 0 -80 0 0 -535 0 -535 90 0 90 0 0 -95 0
-95 90 0 90 0 0 -90 0 -90 93 0 93 0 -1 -78 c-1 -42 0 -83 3 -90 3 -8 30 -12
91 -12 l86 0 -1 -90 c0 -75 2 -90 15 -91 9 -1 49 -1 89 -1 l72 1 2 -272 c2
-150 3 -314 2 -365 l-1 -92 179 0 178 0 0 80 0 80 -95 0 -95 0 0 100 0 100 35
1 c19 1 44 3 55 4 11 1 38 3 60 4 l39 1 3 88 c3 99 -9 88 113 91 l65 1 0 89 0
89 95 1 95 2 0 -96 0 -95 95 0 95 0 0 -270 0 -270 170 0 170 0 0 80 0 80 -85
0 -85 0 0 73 c0 39 -3 208 -7 374 l-6 303 91 0 92 0 0 90 0 90 95 0 95 0 0
135 0 135 90 0 90 0 0 325 0 325 100 0 100 0 0 -95 0 -95 85 0 85 0 0 175 0
175 -185 0 -185 0 0 190 0 190 365 0 365 0 0 85 0 85 -275 0 -275 0 0 100 0
100 458 0 458 0 0 398 -1 397 -90 5 -90 5 0 88 1 87 -723 0 -723 0 0 -90z
m366 -265 l0 -95 -101 0 -101 0 0 95 1 95 101 0 101 0 -1 -95z"/>
<path d="M1637 1303 c-4 -3 -7 -19 -7 -35 l0 -28 731 0 730 0 -3 33 -3 32
-721 3 c-396 1 -724 -1 -727 -5z"/>
<path d="M4930 1275 c0 -21 5 -35 13 -36 6 0 576 -1 1265 -2 l1252 -2 0 38 0
37 -1265 0 -1265 0 0 -35z"/>
<path d="M6660 1006 l0 -35 125 -3 125 -3 0 38 0 37 -125 0 -125 0 0 -34z"/>
<path d="M2180 913 l0 -43 185 0 185 0 0 40 0 40 -147 1 c-82 1 -165 2 -185 3
l-38 2 0 -43z"/>
<path d="M5390 725 c0 -33 2 -35 35 -35 33 0 35 2 35 35 0 33 -2 35 -35 35
-33 0 -35 -2 -35 -35z"/>
<path d="M1632 643 l3 -38 178 -3 177 -2 0 40 0 40 -181 0 -180 0 3 -37z"/>
<path d="M2988 673 l-78 -4 0 -34 0 -35 90 0 90 0 0 40 c0 26 -4 39 -12 38 -7
-1 -48 -4 -90 -5z"/>
<path d="M6020 635 l0 -35 173 0 173 0 0 35 0 35 -173 0 -173 0 0 -35z"/>
</g>
</svg>
